
        <svg xmlns="http://www.w3.org/2000/svg" xmlns:xlink="http://www.w3.org/1999/xlink" version="1.1" width="3230.177123176458" 
        height="644.4959448940825" viewBox="0 0 3230.177123176458 644.4959448940825">
			
			<g transform="scale(11.508856158822901) translate(10, 10)">
				<defs id="SvgjsDefs4157"><linearGradient id="SvgjsLinearGradient4164"><stop id="SvgjsStop4165" stop-color="#8f5e25" offset="0"></stop><stop id="SvgjsStop4166" stop-color="#fbf4a1" offset="0.5"></stop><stop id="SvgjsStop4167" stop-color="#8f5e25" offset="1"></stop></linearGradient><linearGradient id="SvgjsLinearGradient4168"><stop id="SvgjsStop4169" stop-color="#616161" offset="0"></stop><stop id="SvgjsStop4170" stop-color="#e6e7e8" offset="0.5"></stop><stop id="SvgjsStop4171" stop-color="#616161" offset="1"></stop></linearGradient></defs><g id="SvgjsG4158" featureKey="nameLeftFeature-0" transform="matrix(1.1900825695900046,0,0,1.1900825695900046,-2.3716190986558208,-11.615201611782004)" fill="#aaabab"><path d="M7.8 10.04 c-0.4 0 -0.8 0.04 -1.2 0.04 c-0.6 0 -1.32 -0.12 -1.44 0.68 c-0.4 3.4 -0.76 7.16 -1.16 10.56 c-0.68 5.6 -1.32 11.36 -1.96 16.96 c-0.08 0.76 -0.16 1.48 0.68 1.64 c1.28 0.08 2.24 0.08 3.32 0.04 c0.4 0.04 0.84 0.08 0.96 -0.4 c0.08 -0.2 0.08 -0.4 0.08 -0.6 c0.08 -0.92 1.28 -12.44 1.76 -12.44 c0.76 0 2.76 9.36 3.72 12.8 c0.12 0.48 0.36 0.68 0.84 0.64 c1 -0.08 1.96 0 2.96 0 s0.8 -0.64 1 -1.48 c0.24 -0.92 2.56 -12 3.12 -12 c0.64 0 1.96 12.84 2.08 13.12 c0.24 0.56 0.92 0.32 1.4 0.32 c0.72 0 1.4 0.08 2.32 0 c0.68 -0.08 1.36 0.16 1.4 -0.72 c0 -0.2 -0.08 -0.4 -0.12 -0.6 c-0.16 -1 -0.36 -2.2 -0.56 -3.2 c-0.28 -2.08 -0.68 -4.12 -0.96 -6.2 c-0.4 -3.28 -0.8 -6.56 -1.16 -9.84 c-0.28 -2.8 -0.68 -5.96 -0.92 -8.76 c-0.08 -0.92 -1.12 -0.6 -1.76 -0.6 l-2.76 0 c-0.44 0 -0.64 0.84 -0.72 1.28 c-0.24 1.12 -3 15.56 -3.92 15.56 s-3.88 -13.2 -4.4 -16.08 c-0.12 -0.64 -0.56 -0.84 -1.16 -0.84 z M37.2 29.68 c-0.12 -4.56 -0.08 -9.4 -0.04 -13.92 c0 -1.4 -0.08 -2.92 -0.08 -4.32 c0 -1.52 -0.6 -1.44 -1.4 -1.48 c-1.16 -0.04 -1.68 -0.04 -2.84 -0.04 c-0.76 -0.04 -1.08 0.16 -1.08 0.92 c0 3.92 -0.12 15 -0.08 16.6 s0.2 8.88 0.12 10.48 c-0.04 0.56 0 1.12 0.04 1.68 c0.04 0.2 0.16 0.4 0.48 0.4 c1.32 -0.08 2.56 -0.08 3.88 -0.12 c0.48 -0.04 0.88 -0.16 1.08 -0.68 c0.04 -0.28 -0.08 -7.6 -0.08 -9.52 z M58.32 10.920000000000002 c0.12 0.56 0.04 27.2 0.04 27.88 c0 1.2 -0.44 1.16 -1.24 1.16 c-1.2 0 -2.88 0.2 -3.24 -0.2 c-0.32 -0.28 -6.24 -14.56 -7.08 -16.36 c-0.08 -0.16 -0.28 -0.56 -0.44 -0.48 c-0.2 0.08 -0.12 0.36 -0.12 0.52 c-0.04 1.4 0.2 13.48 0.2 15.4 c0 0.96 -0.04 1.12 -0.84 1.12 l-2 0 c-0.52 0 -1.16 -0.04 -1.68 0.04 c-0.4 0 -0.6 -0.12 -0.64 -0.52 l0 -3.16 c0.08 -3.36 0 -23.28 0 -24.76 c0 -1.28 0.36 -1.52 1.64 -1.52 c0.88 -0.04 1.76 -0.04 2.64 -0.04 c0.28 0 0.44 0.04 0.6 0.4 c1.08 2.52 5.68 14.08 6.4 15.48 c0.12 0.28 0.56 1.4 0.8 1.52 l0.04 0 c0.16 -0.16 0.12 -0.96 0.12 -1.2 c0 -0.6 -0.32 -14.64 -0.32 -14.92 c0 -0.4 -0.12 -0.76 0.08 -1.04 c0.12 -0.16 0.64 -0.2 0.84 -0.24 c1.12 -0.08 2.44 0.04 3.56 0 c0.56 0 0.52 0.4 0.64 0.92 z M79.24000000000001 32.64 c0.24 -0.52 0.44 -1.04 0.64 -1.56 c0.44 -1.28 0.52 -2.6 0.64 -3.92 c0.24 -2.8 0.16 -5.64 -0.56 -8.36 c-0.88 -3.48 -3.12 -6.68 -6.48 -8.16 c-1.52 -0.68 -3.24 -0.76 -4.88 -0.72 c-1.72 0 -3.48 -0.08 -5.2 0.08 c-0.48 0.04 -0.72 0.28 -0.8 0.72 c-0.08 0.48 -0.16 0.96 -0.16 1.4 c0.08 2.44 0 9.68 0.08 10.88 c0.04 1.08 -0.08 2.4 -0.08 3.48 c0.04 2.68 0 5.4 0 8.08 c0 1.12 -0.04 2.2 -0.04 3.32 c0 1.2 -0.44 1.72 2.84 1.72 c2.92 0 5.96 -0.24 8.72 -1.28 c2.56 -0.92 4.16 -3.28 5.28 -5.68 z M67.60000000000001 28.48 l0 -4.8 c0 -3.04 0.08 -5 -0.04 -7.56 l0 -0.48 c0.04 -0.84 0.16 -0.88 1.04 -0.88 c1.16 -0.04 2 0.24 3 0.64 s1.56 1.28 2.08 2.12 c1 1.64 1.4 3.44 1.48 5.32 c0.04 1.08 0.08 2.16 0.08 3.24 c0 5.12 -3 8.68 -5.64 8.68 c-1.76 0 -2.04 0.12 -2.04 -1.04 c0 -1.2 0.08 -2.4 0.08 -3.6 c-0.04 -0.52 -0.04 -1.08 -0.04 -1.64 z M84.68000000000002 31.8 l-0.04 0 c0 1 -0.04 2.04 0 3.08 c0.04 1.28 0.12 2.56 0.2 3.84 c0 0.44 0.12 0.56 0.52 0.64 c0.84 0.2 1.64 0.24 2.48 0.24 c2.16 -0.08 4.32 0.08 6.48 0 c0.88 -0.04 1.28 0.04 2.16 -0.12 c0.8 -0.16 1.08 -0.6 1.08 -1.8 c-0.08 -0.76 -0.04 -1.08 -0.04 -2 c0 -1.32 -0.92 -1.76 -1.72 -1.72 c-0.56 0.04 -3.24 -0.04 -4.32 -0.04 c-1.8 0.04 -1.52 0.28 -1.52 -1.6 c0 -1.52 0.04 -3.48 0.04 -5.04 c0 -0.84 0.08 -1.12 0.88 -1.12 l5 0 c0.8 0.12 1.36 -0.44 1.36 -1.28 s0.08 -0.88 0.08 -1.72 l-0.12 -1.2 c-0.08 -0.68 -0.32 -0.92 -1 -0.92 c-0.44 0 -0.88 0.04 -1.32 0.08 c-1.72 0.12 -2.52 -0.12 -4.2 0 c-0.56 0 -0.64 -0.08 -0.68 -0.6 c-0.16 -1.56 0 -3.28 0.16 -4.84 c0.04 -0.64 0.2 -0.76 0.8 -0.8 l5.64 -0.04 c0.76 -0.08 1 -0.04 0.96 -0.8 c-0.08 -1.16 0.04 -2.36 -0.08 -3.52 c-0.08 -0.64 -0.28 -0.76 -1 -0.76 c-1.2 0.04 -1.48 0.04 -2.68 0.12 c-1.2 0.04 -6 0.04 -7.16 0.04 c-1.68 0 -1.8 -0.12 -1.84 1.92 c-0.08 1.6 -0.04 3.24 -0.04 4.88 c0 2.8 -0.16 12.84 -0.08 15.08 z"></path></g><g id="SvgjsG4159" featureKey="inlineSymbolFeature-0" transform="matrix(0.45,0,0,0.45,114.5,-4.5)" fill="url(#SvgjsLinearGradient4164)"><path xmlns="http://www.w3.org/2000/svg" d="M50,10L10,90h80L50,10z M50,24.909L72.546,70H42.36l3.333-6.667h16.064L50,39.814L31.575,76.667h44.304l3.333,6.666H20.788  L50,24.909z"></path></g><g id="SvgjsG4160" featureKey="nameRightFeature-0" transform="matrix(1.1840605496458239,0,0,1.1840605496458239,157.63637823052332,-11.597761382512104)" fill="url(#SvgjsLinearGradient4168)"><path d="M10.76 40.04 c0.6 0 2.8 0.04 3.24 -0.04 c0.28 -0.08 0.44 -0.8 0.52 -1.04 c0.24 -0.76 0.4 -1.56 0.6 -2.32 c0.44 -2 4.88 -18.8 6.44 -25.08 c0.08 -0.28 0.16 -0.6 0.08 -0.88 c-0.12 -0.6 -0.48 -0.68 -0.96 -0.68 c-0.92 0.04 -1.84 0 -2.76 0 c-1.04 0 -1.44 0.12 -1.76 1.28 c-1.56 5.36 -2.6 11.76 -4.04 17.2 l-0.24 0.64 c0 0.04 -0.16 0 -0.16 0 c-0.08 -0.2 -0.2 -0.36 -0.24 -0.56 c-1.44 -5.72 -3.8 -17.04 -4.2 -18.12 c-0.24 -0.64 -0.84 -0.44 -1.4 -0.44 c-1.12 0 -2.16 0.04 -3.24 0.04 c-0.4 0.04 -0.68 0.2 -0.64 0.6 c0 0.32 0.44 2.08 0.52 2.56 l0.44 1.68 c0.28 1.28 0.68 2.88 0.96 4.12 c1.52 6.36 3.16 12.72 4.96 19 c0.16 0.56 0.28 1.52 0.68 1.84 c0.32 0.28 0.84 0.16 1.2 0.2 z M46.76 17.36 c0.84 2.48 1.04 5.16 1.04 7.8 c0 2.2 -0.4 4.32 -0.96 6.44 c-0.72 2.52 -1.92 4.8 -4.08 6.28 c-1.6 1.16 -3.28 1.92 -5.24 2.12 c-0.28 0 -0.52 0.04 -0.8 0.04 c-0.24 0 -0.48 -0.04 -0.76 -0.04 c-1.96 -0.2 -3.64 -0.96 -5.28 -2.12 c-2.12 -1.48 -3.36 -3.76 -4.04 -6.28 c-0.6 -2.12 -0.96 -4.24 -0.96 -6.44 c0 -2.64 0.2 -5.32 1.04 -7.8 c1.48 -4.28 5.56 -7.32 10 -7.4 c4.44 0.08 8.52 3.12 10.04 7.4 z M42.879999999999995 28.08 c0.4 -2.44 0.24 -4.92 -0.24 -7.36 c-0.48 -2.2 -1.44 -4.36 -3.28 -5.68 c-0.32 -0.24 -0.68 -0.44 -1.04 -0.56 c-0.52 -0.24 -1.08 -0.32 -1.6 -0.32 s-1.04 0.08 -1.56 0.32 c-0.4 0.12 -0.72 0.32 -1.04 0.56 c-1.88 1.32 -2.84 3.48 -3.28 5.68 c-0.48 2.44 -0.64 4.92 -0.24 7.36 c0.4 2.2 1.2 5.16 3.28 6.28 c0.88 0.48 1.84 0.8 2.84 0.84 c1 -0.04 2 -0.36 2.88 -0.84 c2.08 -1.12 2.88 -4.08 3.28 -6.28 z M56.76 37 c0 -1.04 0 -7.6 0.04 -8.12 c0.04 -0.12 0.12 -0.36 0.28 -0.36 s0.24 0.08 0.28 0.2 c1.6 3.12 3 6.24 4.44 9.28 c0.2 0.44 0.64 1.72 0.76 1.84 c0.16 0.24 0.44 0.16 0.68 0.16 l4.4 0.04 c0.52 0 0.64 -0.32 0.52 -0.76 c-0.32 -1.2 -2.6 -5.44 -3.12 -6.48 c-0.36 -0.8 -2.76 -5.44 -2.84 -5.8 c-0.08 -0.16 0.52 -0.44 0.6 -0.56 c1.92 -1.72 3.64 -3.48 4 -6.16 c0.4 -2.64 -0.2 -5.52 -1.92 -7.64 c-1.32 -1.56 -3.04 -2.48 -5.08 -2.6 c-1.24 -0.08 -2.44 0.04 -3.68 0 c-1.08 -0.04 -1.84 -0.04 -3.2 -0.04 c-0.64 0 -1.04 0.36 -1.08 1.04 l0 0.48 c-0.08 3.08 0 6.16 0.04 9.2 c0 4.64 -0.08 16.88 -0.08 18.64 c0 0.52 0.08 0.64 0.56 0.64 c0.28 0 0.6 0.04 0.88 0.04 c1.12 0 1.8 -0.04 2.96 -0.04 c0.88 0 0.56 -1.44 0.56 -3 z M56.76 21.4 l0.04 -4.04 c0.04 -0.6 -0.16 -1.8 0.4 -2.24 c0.76 -0.56 2.32 0 3 0.48 c2 1.36 1.84 4.72 0.76 6.6 c-0.52 0.88 -1.4 1.4 -2.4 1.68 c-0.6 0.16 -1.72 0.36 -1.76 -0.6 c0 -0.64 -0.04 -1.88 -0.04 -1.88 z M80.36 9.8 c-0.76 0.04 -1.52 0.16 -2.28 0.4 c-1.64 0.56 -3.12 1.68 -4.12 3.12 c-0.88 1.32 -1.24 2.88 -1.36 4.44 c-0.08 1.2 0.04 2.44 0.6 3.52 c0.6 1.16 1.64 2.16 2.52 3.12 c0.8 0.84 1.6 1.68 2.48 2.44 c0.8 0.76 1.72 1.36 2.52 2.16 c1.16 1.16 1.6 3.8 0.76 5.24 c-1 1.6 -3.36 1.84 -4.92 1.32 c-0.8 -0.28 -1.52 -0.88 -2.2 -1.36 c-0.4 -0.28 -0.88 -0.4 -1.16 0.08 c-0.16 0.24 -0.24 0.52 -0.32 0.76 c-0.28 1 -0.64 1.92 -0.68 3 c-0.04 1.24 2.32 1.6 3.2 1.8 c3.92 0.92 8.64 0.2 10.68 -3.68 c0.4 -0.8 0.68 -1.64 0.84 -2.52 c0.04 -0.32 0.08 -0.6 0.08 -0.92 c0.16 -2.56 -0.88 -4.72 -2.44 -6.64 c-1.68 -2.08 -3.8 -3.52 -5.76 -5.32 c-1.2 -1.12 -1.64 -2.88 -1.28 -4.48 c0.36 -1.72 2.32 -2.16 3.8 -1.72 c0.44 0.12 0.8 0.32 1.2 0.56 c0.24 0.12 0.48 0.28 0.8 0.28 c0.56 0.04 0.64 -0.4 0.76 -0.84 c0.28 -1 0.76 -1.8 0.96 -2.76 c0.2 -1.08 -0.68 -1.28 -1.56 -1.56 c-1.04 -0.28 -2.04 -0.48 -3.12 -0.44 z"></path></g>
			</g>
		</svg>
	